:SAMPLES-PER-SECOND 30
:FULLY-SPECIFIED
:DEGREES
378
root  34.89537277 36.51911518 -14.81457207 8.723108292 -5.850864887 3.531184435
lowerback  -8.635020256 -0.4900520444 -0.1013472006
upperback  -3.66437006 -0.2145880014 -3.107919931
thorax  1.034770012 0.0333600007 -3.172749996
lowerneck  -13.10890007 -8.082409859 -6.895549774
upperneck  21.10160065 -11.01350021 8.22961998
head  9.701167107 -4.54393816 2.625424385
lclavicle  0 -4.497500157e-015 -2.743230041e-014
lhumerus  -47.35340118 28.88780022 65.14299774
lradius  0.007069340441 -6.507048965e-006 30.13310051
lwrist  4.824992743e-007 -3.790274832e-007 -27.45490074
lhand  -4.405300586e-031 -36.72040176 -10.72439957
lfingers  90 7.125020027 -90
lthumb  94.74225044 -25.56571091 100.8814038
rclavicle  0 -4.497500157e-015 -2.743230041e-014
rhumerus  -60.07630157 -44.21269989 -44.25719833
rradius  -5.16745672e-007 2.214343908e-008 34.47190094
rwrist  -2.867388866e-005 0.0111028729 -144.25
rhand  -1.775242907e-031 5.986219883 -7.881830215
rfingers  -90 -7.125020027 -90
rthumb  -84.88329923 -8.341505645 -58.31643225
rfemur  -12.62029457 16.17663383 12.65066147
rtibia  -1.058463454 -1.128204942 20.72149849
rfoot  0.4845489562 -22.0424366 -35.28017807
rtoes  4.099939364 19.59211694 -102.066185
lfemur  -8.481095314 -16.61361504 -20.26991653
ltibia  2.17915535 -1.095918894 15.1291647
lfoot  0.8009922504 -23.47719574 37.69195557
ltoes  -8.506763157 -18.16811184 -115.6267749
379
root  34.89801602 36.51885686 -14.81728742 8.736017227 -5.748353958 3.543230772
lowerback  -8.605230331 -0.4842709303 -0.04531028867
upperback  -3.658370018 -0.2110539973 -3.137979984
thorax  1.024150014 0.03447819874 -3.235189915
lowerneck  -13.07269955 -8.133649826 -6.838180065
upperneck  21.06069946 -11.08790016 8.181650162
head  9.673239708 -4.580780029 2.595340014
lclavicle  0 -4.497500157e-015 -2.743230041e-014
lhumerus  -47.39599991 28.84250069 65.06459808
lradius  0.007069340441 -6.507048965e-006 30.04980278
lwrist  4.824992743e-007 -3.790274832e-007 -27.78680038
lhand  -4.405300586e-031 -36.72040176 -10.72439957
lfingers  90 7.125020027 -90
lthumb  94.74225044 -25.56571091 100.8814038
rclavicle  0 -4.497500157e-015 -2.743230041e-014
rhumerus  -59.84759903 -43.78419876 -45.05079651
rradius  -5.16745672e-007 2.214343908e-008 34.61980057
rwrist  -2.867388866e-005 0.0111028729 -143.8390045
rhand  -1.775242907e-031 5.986219883 -7.881830215
rfingers  -90 -7.125020027 -90
rthumb  -84.88329923 -8.341505645 -58.31643225
rfemur  -12.65111828 16.2439518 12.64958096
rtibia  -1.085020542 -1.083217025 20.76179314
rfoot  0.4474807084 -21.92555046 -35.42938614
rtoes  4.099939364 19.59211694 -102.066185
lfemur  -8.510842323 -16.53808594 -20.26405334
ltibia  2.192156315 -1.02968049 15.12988949
lfoot  0.8183610439 -23.62621498 37.60581207
ltoes  -8.506763157 -18.16811184 -115.6267749
380
root  34.89838848 36.51752622 -14.82059449 8.721821785 -5.66870594 3.572839737
lowerback  -8.612529755 -0.5352139473 -0.1386037767
upperback  -3.645999908 -0.27709499 -3.048239946
thorax  1.038699985 0.001123799942 -3.095309973
lowerneck  -13.10980034 -8.146349907 -6.983119965
upperneck  21.08930016 -11.08520031 8.224320412
head  9.701809883 -4.585730076 2.632329941
lclavicle  0 -4.497500157e-015 -2.743230041e-014
lhumerus  -47.45650101 28.85569954 65.16049957
lradius  0.007069340441 -6.507048965e-006 30.17079926
lwrist  4.824992743e-007 -3.790274832e-007 -27.4389019
lhand  -4.405300586e-031 -36.72040176 -10.72439957
lfingers  90 7.125020027 -90
lthumb  94.74225044 -25.56571091 100.8814038
rclavicle  0 -4.497500157e-015 -2.743230041e-014
rhumerus  -59.30270004 -43.13240051 -45.94449997
rradius  -5.16745672e-007 2.214343908e-008 34.71120071
rwrist  -2.867388866e-005 0.0111028729 -144.1459961
rhand  -1.775242907e-031 5.986219883 -7.881830215
rfingers  -90 -7.125020027 -90
rthumb  -84.88329923 -8.341505645 -58.31643225
rfemur  -12.66203976 16.32840347 12.65044308
rtibia  -1.114195347 -1.023732781 20.83756638
rfoot  0.3901216388 -21.80856133 -35.59361649
rtoes  4.099939364 19.59211694 -102.066185
lfemur  -8.447453499 -16.61246109 -20.32558632
ltibia  2.247685909 -1.026767731 15.04115009
lfoot  0.8096967936 -23.59902 37.60474396
ltoes  -8.506763157 -18.16811184 -115.6267749
381
root  34.89479305 36.516532 -14.82218645 8.701454163 -5.579059124 3.575478554
lowerback  -8.583900452 -0.5422340035 -0.1226516664
upperback  -3.666090012 -0.2875629961 -3.043450117
thorax  1.00150001 -0.004036460072 -3.100019932
lowerneck  -13.04609966 -8.187979698 -7.060080051
upperneck  21.05999947 -11.13660049 8.265250206
head  9.691450119 -4.613739967 2.653509855
lclavicle  0 -4.497500157e-015 -2.743230041e-014
lhumerus  -47.49459839 28.74209976 65.22820282
lradius  0.007069340441 -6.507048965e-006 30.24850082
lwrist  4.824992743e-007 -3.790274832e-007 -27.06209946
lhand  -4.405300586e-031 -36.72040176 -10.72439957
lfingers  90 7.125020027 -90
lthumb  94.74225044 -25.56571091 100.8814038
rclavicle  0 -4.497500157e-015 -2.743230041e-014
rhumerus  -59.1095047 -42.67369843 -46.58119583
rradius  -5.16745672e-007 2.214343908e-008 34.87400055
rwrist  -2.867388866e-005 0.0111028729 -144.177002
rhand  -1.775242907e-031 5.986219883 -7.881830215
rfingers  -90 -7.125020027 -90
rthumb  -84.88329923 -8.341505645 -58.31643225
rfemur  -12.62983131 16.31928062 12.67141533
rtibia  -1.119600177 -1.03348732 20.84874725
rfoot  0.3765555024 -21.85071564 -35.63100815
rtoes  4.099939364 19.59211694 -102.066185
lfemur  -8.34401989 -16.66253853 -20.35677719
ltibia  2.313686848 -1.022562385 14.91831017
lfoot  0.7936754823 -23.53221703 37.5959549
ltoes  -8.506763157 -18.16811184 -115.6267749
382
root  34.89154906 36.51667017 -14.82477113 8.680034637 -5.513036728 3.551303387
lowerback  -8.58630085 -0.541958034 -0.1137668192
upperback  -3.668610096 -0.2865050137 -3.056210041
thorax  1.000090003 -0.003185729962 -3.118230104
lowerneck  -13.01049995 -8.234769821 -7.010260105
upperneck  21.01000023 -11.19630051 8.182579994
head  9.663820267 -4.650529861 2.609100342
lclavicle  0 -4.497500157e-015 -2.743230041e-014
lhumerus  -47.53950119 28.70899963 65.21890259
lradius  0.007069340441 -6.507048965e-006 30.22100258
lwrist  4.824992743e-007 -3.790274832e-007 -27.02700043
lhand  -4.405300586e-031 -36.72040176 -10.72439957
lfingers  90 7.125020027 -90
lthumb  94.74225044 -25.56571091 100.8814038
rclavicle  0 -4.497500157e-015 -2.743230041e-014
rhumerus  -59.24359894 -42.56700134 -46.91849899
rradius  -5.16745672e-007 2.214343908e-008 35.08879852
rwrist  -2.867388866e-005 0.0111028729 -143.8970032
rhand  -1.775242907e-031 5.986219883 -7.881830215
rfingers  -90 -7.125020027 -90
rthumb  -84.88329923 -8.341505645 -58.31643225
rfemur  -12.58141708 16.31248474 12.72141075
rtibia  -1.116755128 -0.9966890812 20.8187027
rfoot  0.3963144124 -21.7854023 -35.65215683
rtoes  4.099939364 19.59211694 -102.066185
lfemur  -8.358703613 -16.71722984 -20.3037262
ltibia  2.273485899 -1.020774603 14.96912384
lfoot  0.7726740837 -23.5507431 37.55967331
ltoes  -8.506763157 -18.16811184 -115.6267749
383
root  34.89096334 36.52202276 -14.80447814 8.562879562 -5.276320457 3.53327775
lowerback  -8.481591225 -0.6331000328 -0.2186084092
upperback  -3.740230083 -0.3980799913 -3.027570009
thorax  0.8636929989 -0.05656120181 -3.038229942
lowerneck  -12.97630024 -8.257430077 -7.018750191
upperneck  20.9598999 -11.22889996 8.193169594
head  9.643799782 -4.668399811 2.610349655
lclavicle  0 -4.497500157e-015 -2.743230041e-014
lhumerus  -47.6413002 28.7595005 65.11859894
lradius  0.007069340441 -6.507048965e-006 30.16869736
lwrist  4.824992743e-007 -3.790274832e-007 -27.32659912
lhand  -4.405300586e-031 -36.72040176 -10.72439957
lfingers  90 7.125020027 -90
lthumb  94.74225044 -25.56571091 100.8814038
rclavicle  0 -4.497500157e-015 -2.743230041e-014
rhumerus  -59.11090088 -42.28490067 -47.37940216
rradius  -5.16745672e-007 2.214343908e-008 35.14110184
rwrist  -2.867388866e-005 0.0111028729 -144.0420074
rhand  -1.775242907e-031 5.986219883 -7.881830215
rfingers  -90 -7.125020027 -90
rthumb  -84.88329923 -8.341505645 -58.31643225
rfemur  -12.31677818 16.30401993 12.78552818
rtibia  -1.07428515 -0.8963205814 20.67806053
rfoot  0.4189833999 -21.60406494 -35.86325073
rtoes  4.099939364 19.59211694 -102.066185
lfemur  -8.108064651 -16.56808662 -20.37246704
ltibia  2.374752522 -0.9089115858 14.80322742
lfoot  0.7431732416 -23.74563217 37.31512451
ltoes  -8.506763157 -18.16811184 -115.6267749
384
root  34.89219185 36.52267456 -14.80466587 8.540859222 -5.205723763 3.533105612
lowerback  -8.470080376 -0.6596239805 -0.2495643646
upperback  -3.750169992 -0.4310509861 -3.012269974
thorax  0.8458660245 -0.07250119746 -3.007669926
lowerneck  -12.91790009 -8.281880379 -7.152019978
upperneck  20.93689919 -11.26089859 8.312330246
head  9.643770218 -4.682439804 2.670340061
lclavicle  0 -4.497500157e-015 -2.743230041e-014
lhumerus  -47.76179886 28.74620056 65.0565033
lradius  0.007069340441 -6.507048965e-006 30.15840149
lwrist  4.824992743e-007 -3.790274832e-007 -27.51530075
lhand  -4.405300586e-031 -36.72040176 -10.72439957
lfingers  90 7.125020027 -90
lthumb  94.74225044 -25.56571091 100.8814038
rclavicle  0 -4.497500157e-015 -2.743230041e-014
rhumerus  -59.04610062 -42.07759857 -47.68629837
rradius  -5.16745672e-007 2.214343908e-008 35.21820068
rwrist  -2.867388866e-005 0.0111028729 -144.0650024
rhand  -1.775242907e-031 5.986219883 -7.881830215
rfingers  -90 -7.125020027 -90
rthumb  -84.88329923 -8.341505645 -58.31643225
rfemur  -12.27375031 16.29896736 12.79782677
rtibia  -1.070517898 -0.8684871197 20.66286469
rfoot  0.4187343717 -21.54566765 -35.92334747
rtoes  4.099939364 19.59211694 -102.066185
lfemur  -8.072911263 -16.53431702 -20.37472343
ltibia  2.390509367 -0.851451993 14.77380848
lfoot  0.7676913738 -23.86660385 37.32098389
ltoes  -8.506763157 -18.16811184 -115.6267749
385
root  34.89112554 36.52432359 -14.80734968 8.555971146 -5.182077885 3.503750086
lowerback  -8.423480988 -0.6701270342 -0.2629551589
upperback  -3.756210089 -0.4445529878 -3.02196002
thorax  0.8133130074 -0.07923880219 -3.01086998
lowerneck  -12.84589958 -8.314809799 -7.104640007
upperneck  20.88220024 -11.30410004 8.246100426
head  9.607469559 -4.710499763 2.635880232
lclavicle  0 -4.497500157e-015 -2.743230041e-014
lhumerus  -47.86000061 28.69499969 65.03659821
lradius  0.007069340441 -6.507048965e-006 30.18260002
lwrist  4.824992743e-007 -3.790274832e-007 -27.45019913
lhand  -4.405300586e-031 -36.72040176 -10.72439957
lfingers  90 7.125020027 -90
lthumb  94.74225044 -25.56571091 100.8814038
rclavicle  0 -4.497500157e-015 -2.743230041e-014
rhumerus  -59.04330063 -41.93019867 -47.90320206
rradius  -5.16745672e-007 2.214343908e-008 35.32180023
rwrist  -2.867388866e-005 0.0111028729 -143.9669952
rhand  -1.775242907e-031 5.986219883 -7.881830215
rfingers  -90 -7.125020027 -90
rthumb  -84.88329923 -8.341505645 -58.31643225
rfemur  -12.27387333 16.24915314 12.81937981
rtibia  -1.056637287 -0.8922007084 20.62522507
rfoot  0.4400009513 -21.60060501 -35.88037872
rtoes  4.099939364 19.59211694 -102.066185
lfemur  -8.166465759 -16.60805321 -20.28504372
ltibia  2.313485861 -0.8644233346 14.88076973
lfoot  0.7584130168 -23.86776733 37.33934784
ltoes  -8.506763157 -18.16811184 -115.6267749
